<?xml version="1.0" encoding="UTF-8"?>
<svg xmlns="http://www.w3.org/2000/svg" id="a" width="865.76" height="682.89" viewBox="0 0 865.76 682.89">
  <g>
    <polygon points="435.41 604.27 653.29 655.86 744.95 253.15 528.58 203.06 435.41 604.27" fill="#e6e7e8" stroke="#002346" stroke-miterlimit="10" stroke-width="1.08"></polygon>
    <polygon points="443.93 596.75 534.59 214.08 735.51 258.99 647.28 644.84 443.93 596.75" fill="#fff" stroke="#002346" stroke-miterlimit="10" stroke-width="1.08"></polygon>
    <g>
      <path d="M308.17,293.04l30.68,44.33s12.98,19.96,36.57,15.56c0,0,31.19-8.26,40.28-40.08,0,0,5.02-16.83-7.84-34.28l-28.33-41.2-10.33,19.69-14.4,4.31,30.56,44.82s4.69,6.26-1.94,10.35c0,0-12.43,6.84-19.1-1.95l-30.94-45.42-10.58,18.6-14.63,5.28Z" fill="#e6e7e8" stroke="#002346" stroke-miterlimit="10" stroke-width="1.08"></path>
      <polygon points="308.17 293.04 291.34 268.47 300.93 247.58 316.45 245.08 333.39 269.16 322.81 287.76 308.17 293.04" fill="#ffffff" stroke="#002346" stroke-miterlimit="10" stroke-width="1.08"></polygon>
      <polygon points="347.43 216.38 337.97 236.79 354.8 261.36 369.2 257.06 379.53 237.37 362.95 213.88 347.43 216.38" fill="#ffffff" stroke="#002346" stroke-miterlimit="10" stroke-width="1.08"></polygon>
      <path d="M362.84,214.12l-8.06,16.88-11.97,3.2c-1.23,.33-1.9,1.67-1.41,2.85h0c.41,1,1.51,1.53,2.55,1.23l10.88-3.15,14.37,21.93-14.4,4.31-16.83-24.58,9.47-20.41,15.27-2.46c.11-.02,.19,.09,.14,.19Z" fill="#ffffff" stroke="#002346" stroke-miterlimit="10" stroke-width="1.08"></path>
      <path d="M316.45,245.08l-9,18.46-11.7,2.55c-1.06,.23-1.77,1.23-1.63,2.31h0c.16,1.25,1.37,2.07,2.59,1.77l11.39-2.87,14.71,20.47-14.63,5.28-16.83-24.58,9.58-20.89,15.52-2.5Z" fill="#ffffff" stroke="#002346" stroke-miterlimit="10" stroke-width="1.08"></path>
      <path d="M368.41,319.31c-.64-1.15-.76-2.55-.21-3.75,.5-1.1,1.52-2.01,3.58-1.27,0,0,1.71,.38,4,1.96,0,0,.01-8.75,10.13-5.84,0,0-.22-7.77,6.89-3,0,0,.49-5.4,4.32-3.46,1.25,.63,2.18,1.73,2.76,3,1.12,2.48,2.16,6.84-4.45,6.75,0,0,1.41,3.54,1,6.06-.2,1.23-1.25,2.17-2.49,2.21-.98,.03-2.39-.25-4.25-1.4,0,0-.18,5.1-3.82,5.27,0,0-3.27,.77-6.48-3.08,0,0-5.62,6.19-10.96-3.47Z" fill="#f2b3c1" stroke="#002346" stroke-miterlimit="10" stroke-width="1.08"></path>
      <path d="M415.15,349.34l-6.19-21.1c-14.83,19.14-24.06,19.01-24.06,19.01-3.18-5.95-5.37-8.4-6.62-9.4-.91-.73-2.21-.81-3.13-.09-3.47,2.74-.53,13.75-.53,13.75,1.28,5.45,14.93,12.97,14.93,12.97l25.59-15.14Z" fill="#f2b3c1" stroke="#002346" stroke-miterlimit="10" stroke-width="1.08"></path>
      <line x1="375.77" y1="316.26" x2="379.37" y2="322.78" fill="#f2b3c1" stroke="#002346" stroke-miterlimit="10" stroke-width="1.08"></line>
      <line x1="385.9" y1="310.43" x2="389.67" y2="320.58" fill="#f2b3c1" stroke="#002346" stroke-miterlimit="10" stroke-width="1.08"></line>
      <line x1="392.79" y1="307.42" x2="395.42" y2="313.71" fill="#f2b3c1" stroke="#002346" stroke-miterlimit="10" stroke-width="1.08"></line>
    </g>
    <polygon points="509.04 547.17 503.03 610.78 647.28 644.84 656.3 604.77 648.29 540.66 621.74 531.64 542.1 532.14 509.04 547.17" fill="#ffffff" stroke="#002346" stroke-miterlimit="10" stroke-width="1.08"></polygon>
    <path d="M574.16,293.22s2.5-1,6.01,2.5l2.24,2.24c1.13,1.13,2.67,1.76,4.27,1.74l78.14-.97s-15.03-18.53-21.04-24.54c0,0,6.51,5.51,19.53-13.02,0,0,6.91-11.35,3.58-21.31-.02-.07,.05-.12,.11-.08,2.61,2.09,32.21,25.97,56.17,53.2,4.37,4.97,8.04,10.54,10.76,16.58,4.45,9.89,7.41,23.36-2.99,32.34-2.67,2.31-5.89,3.91-9.3,4.81-10.1,2.68-42.41,10.55-80.87,12.62l1.5,94.17,8.84,85.91c.1,.97-.59,1.85-1.56,1.98l-67.89,9.28s-24.84,5.25-33-11.76c-.16-.33-.65-.27-.71,.1-.55,3.55-3.12,12.69-14.88,10.66l-26.8-2.35c-.97-.09-1.7-.93-1.65-1.9l3.41-62.36-5.51-60.61-30.05,27.05s-36.56,31.56-59.6-9.02c0,0-22.54-44.08-28.05-73.13l37.06-22.54,20.04,39.07s32.06-58.1,71.12-73.63l26.05,20.04,35.06-37.06Z" fill="#8d00f2" stroke="#002346" stroke-miterlimit="10" stroke-width="1.08"></path>
    <path d="M553.62,572.71s9.52,3.01,12.02,19.03l6.51,35.56" fill="none" stroke="#002346" stroke-linecap="round" stroke-linejoin="round" stroke-width="1.08"></path>
    <path d="M519.56,306.25l-6.51,4.01s21.35,64.92,28.96,105.62c.32,1.69,2.75,1.65,3.01-.05,4.02-26.25,16.03-98.46,29.49-118.99,.66-1,.63-2.3-.09-3.26l-.27-.36-8.51-5.01-32.56,11.52-13.52,6.51Z" fill="#fff" stroke="#002346" stroke-miterlimit="10" stroke-width="1.08"></path>
    <path d="M520.06,284.21l-.5,22.04h5.85c1.31,0,2.49,.79,2.98,2l2.18,5.29c.2,.49,.88,.52,1.12,.05l4.15-7.91c.48-.91,1.26-1.62,2.22-2,5.11-2.03,22.07-9.1,27.58-15.45,0,0-22.54-9.02-20.54-33.06l-17.53,8.01-7.51,21.04Z" fill="#f2b3c1" stroke="#002346" stroke-miterlimit="10" stroke-width="1.08"></path>
    <rect x="484.5" y="210.58" width="55.1" height="79.64" rx="27.55" ry="27.55" fill="#f2b3c1" stroke="#002346" stroke-miterlimit="10" stroke-width="1.08"></rect>
    <path d="M484.5,234.12s-19.59-31.02,8.2-44.39c6.9-3.32,15.25,.66,21.06,5.65,.08,.07,.16,.14,.24,.21,0,0,17.78-12.27,29.3,7.76,0,0,24.04,11.52,17.53,36.06,0,0-6.24,27.56-13.64,30.31,0,0-3.59-7.05-1.39-14.28l-8.21-10.8-1.53,.81c-1.45,.77-3.25,.05-3.76-1.52l-1.9-5.81c-.1-.3-.23-.58-.4-.84l-9.34-14.25c-.84-1.28-2.4-1.88-3.88-1.49l-15.5,4.08c-.69,.18-1.41,.15-2.08-.1l-6.54-2.43c-1.45-.54-3.1-.05-4,1.21-1.22,1.72-2.83,4.75-4.16,9.82Z" fill="#002346" stroke="#002346" stroke-miterlimit="10" stroke-width="1.08"></path>
    <ellipse cx="541.85" cy="251.65" rx="7.26" ry="9.13" fill="#f2b3c1" stroke="#002346" stroke-miterlimit="10" stroke-width="1.08"></ellipse>
    <path d="M621.24,559.69s9.52,8.01,19.53,2" fill="none" stroke="#002346" stroke-linecap="round" stroke-linejoin="round" stroke-width="1.08"></path>
    <g>
      <path d="M553.62,227.11l40.07,36.06s17.23,16.43,39.17,6.71c0,0,28.45-15.23,29.95-48.29,0,0,1-17.53-15.53-31.56l-37.06-33.56-5.51,21.54-13.02,7.51,40.07,36.56s6.01,5.01,.5,10.52c0,0-10.52,9.52-19.03,2.5l-40.57-37.06-6.01,20.54-13.02,8.51Z" fill="#e6e7e8" stroke="#002346" stroke-miterlimit="10" stroke-width="1.08"></path>
      <polygon points="553.62 227.11 531.58 207.07 536.09 184.53 550.61 178.52 572.65 198.06 566.64 218.59 553.62 227.11" fill="#ffffff" stroke="#002346" stroke-miterlimit="10" stroke-width="1.08"></polygon>
      <polygon points="574.16 143.46 569.65 165.5 591.69 185.53 604.71 178.02 610.22 156.48 588.68 137.45 574.16 143.46" fill="#ffffff" stroke="#002346" stroke-miterlimit="10" stroke-width="1.08"></polygon>
      <path d="M588.63,137.7l-3.95,18.28-10.91,5.87c-1.12,.6-1.46,2.06-.72,3.1h0c.63,.88,1.82,1.15,2.77,.61l9.86-5.57,19.03,18.03-13.02,7.51-22.04-20.04,4.51-22.04,14.29-5.91c.1-.04,.21,.05,.18,.15Z" fill="#ffffff" stroke="#002346" stroke-miterlimit="10" stroke-width="1.08"></path>
      <path d="M550.61,178.52l-4.51,20.04-10.79,5.18c-.98,.47-1.44,1.61-1.05,2.62h0c.44,1.18,1.81,1.7,2.93,1.12l10.43-5.42,19.03,16.53-13.02,8.51-22.04-20.04,4.51-22.54,14.53-6.01Z" fill="#ffffff" stroke="#002346" stroke-miterlimit="10" stroke-width="1.08"></path>
      <path d="M618.28,238.78c-.89-.97-1.33-2.31-1.07-3.6,.24-1.18,1.02-2.3,3.19-2.06,0,0,1.75-.03,4.34,.99,0,0-2-8.51,8.51-8.01,0,0-2-7.51,6.01-4.51,0,0-.77-5.37,3.4-4.36,1.36,.33,2.52,1.18,3.38,2.28,1.67,2.16,3.68,6.16-2.77,7.59,0,0,2.19,3.12,2.37,5.67,.09,1.24-.71,2.4-1.91,2.73-.95,.26-2.39,.31-4.46-.38,0,0,1,5.01-2.5,6.01,0,0-3.01,1.5-7.01-1.5,0,0-4.04,7.32-11.47-.85Z" fill="#f2b3c1" stroke="#002346" stroke-miterlimit="10" stroke-width="1.08"></path>
      <path d="M640.77,262.17s9.02-2,19.03-24.04l7.76,11.32s-1.24,10.62-9.25,17.93c0,0-8.02,10.32-14.53,6.81,0,0-9.52-.5-12.02-5.51,0,0-5.41-10.04-2.66-13.51,.72-.91,2.01-1.13,3.06-.63,1.45,.69,4.15,2.57,8.61,7.62Z" fill="#f2b3c1" stroke="#002346" stroke-miterlimit="10" stroke-width="1.08"></path>
      <line x1="624.74" y1="234.12" x2="629.75" y2="239.63" fill="#f2b3c1" stroke="#002346" stroke-miterlimit="10" stroke-width="1.08"></line>
      <line x1="633.26" y1="226.1" x2="639.27" y2="235.12" fill="#f2b3c1" stroke="#002346" stroke-miterlimit="10" stroke-width="1.08"></line>
      <line x1="639.27" y1="221.6" x2="643.28" y2="227.11" fill="#f2b3c1" stroke="#002346" stroke-miterlimit="10" stroke-width="1.08"></line>
    </g>
    <line x1="441.92" y1="383.88" x2="454.95" y2="407.42" fill="none" stroke="#002346" stroke-linecap="round" stroke-linejoin="round" stroke-width="1.08"></line>
    <line x1="640.77" y1="359.34" x2="639.77" y2="335.3" fill="none" stroke="#002346" stroke-linecap="round" stroke-linejoin="round" stroke-width="1.08"></line>
    <path d="M666.45,239.68c-.79,.18-2.59,.99-2.39,4.71l3.5,5.06s.7-6.76-.58-9.51c-.09-.2-.31-.31-.53-.26Z" fill="#8d00f2" stroke="#002346" stroke-miterlimit="10" stroke-width="1.08"></path>
    <line x1="664.81" y1="298.73" x2="685.35" y2="298.73" fill="none" stroke="#002346" stroke-linecap="round" stroke-linejoin="round" stroke-width="1.08"></line>
  </g>
  <g>
    <rect x="218.61" y="60" width="107.69" height="68.13" rx="6.97" ry="6.97" fill="#fff" stroke="#002346" stroke-miterlimit="10" stroke-width="1.08"></rect>
    <path d="M326.3,66.97l-53.85,27.09-53.85-27.09c0-3.85,3.12-6.97,6.97-6.97h93.75c3.85,0,6.97,3.12,6.97,6.97Z" fill="#e6e7e8" stroke="#002346" stroke-miterlimit="10" stroke-width="1.08"></path>
    <polygon points="302.72 36.87 302.72 79.07 272.45 94.07 242.78 79.07 241.68 27.03 292.02 27.03 302.72 36.87" fill="#8d00f2" stroke="#002346" stroke-miterlimit="10" stroke-width="1.08"></polygon>
    <path d="M292.02,27.26v9.66l10.41-.07c.1,0,.15-.11,.08-.18l-10.32-9.49c-.07-.06-.17-.01-.17,.07Z" fill="#8d00f2" stroke="#002346" stroke-miterlimit="10" stroke-width="1.08"></path>
    <path d="M281.37,44.4c1.82,.95,3.24,2.29,4.25,4.02,1.01,1.73,1.52,3.74,1.52,6.02,0,.67-.04,1.35-.12,2.04-.33,2.44-1.09,4.32-2.27,5.65-1.18,1.33-2.69,2-4.54,2-.9,0-1.69-.15-2.36-.46-.68-.31-1.22-.76-1.63-1.35-.08-.13-.15-.13-.23,0-.49,.54-1.08,.96-1.77,1.27-.69,.31-1.4,.46-2.11,.46-1.44,0-2.61-.35-3.52-1.04-.91-.69-1.44-1.59-1.6-2.69-.05-.46-.08-.82-.08-1.08,0-.59,.06-1.33,.19-2.23,.15-1.33,.4-2.42,.73-3.27,.41-1.2,1.11-2.14,2.1-2.81,.99-.67,2.08-1,3.29-1,1.38,0,2.42,.42,3.11,1.27,.05,.05,.1,.06,.13,.04,.04-.03,.06-.06,.06-.12l.08-.65c.03-.23,.15-.35,.38-.35h1.81c.13,0,.23,.05,.31,.13,.08,.09,.1,.19,.08,.29l-1.04,7.73c-.03,.15-.04,.37-.04,.65,0,.82,.21,1.49,.63,2.02,.42,.53,1.01,.79,1.75,.79,.97,0,1.8-.45,2.48-1.35,.68-.9,1.13-2.17,1.36-3.81,.1-.92,.15-1.59,.15-2,0-2.87-.88-5.13-2.63-6.77-1.76-1.64-4.08-2.46-6.98-2.46-2.2,0-4.27,.51-6.19,1.54-1.92,1.03-3.47,2.52-4.63,4.5-1.17,1.97-1.75,4.33-1.75,7.07,0,1.92,.38,3.63,1.13,5.13,.76,1.5,1.85,2.67,3.27,3.5,1.42,.83,3.1,1.25,5.02,1.25,1.28,0,2.51-.15,3.67-.44,1.17-.3,2.06-.66,2.67-1.1,.08-.05,.17-.08,.27-.08s.19,.05,.27,.15l.96,1.15c.05,.05,.08,.13,.08,.23,0,.13-.05,.23-.15,.31-.9,.67-2.09,1.2-3.58,1.61-1.49,.41-3,.62-4.54,.62-2.33,0-4.38-.51-6.13-1.54-1.76-1.03-3.11-2.48-4.08-4.36s-1.44-4.06-1.44-6.52c0-.59,.01-1.04,.04-1.35,.2-2.84,1.04-5.33,2.52-7.46,1.47-2.13,3.34-3.76,5.59-4.9,2.26-1.14,4.64-1.71,7.15-1.71s4.52,.47,6.34,1.42Zm-7.38,16.8c.51-.41,.9-.95,1.15-1.61,.18-.38,.31-.83,.38-1.35l.23-1.77c.08-.69,.12-1.18,.12-1.46l-.04-.65c-.05-.64-.3-1.17-.75-1.58-.45-.41-1.02-.62-1.71-.62s-1.36,.21-1.92,.62c-.56,.41-.97,.92-1.23,1.54-.21,.51-.4,1.44-.58,2.77-.13,.74-.19,1.35-.19,1.81,0,.21,.03,.44,.08,.69,.05,.67,.31,1.2,.79,1.61,.47,.41,1.08,.61,1.83,.61s1.33-.2,1.85-.61Z" fill="#fff"></path>
  </g>
  <g>
    <rect x="407.06" y="94.99" width="90.35" height="57.16" rx="5.85" ry="5.85" fill="#fff" stroke="#002346" stroke-miterlimit="10" stroke-width="1.08"></rect>
    <path d="M497.41,100.85l-45.17,22.73-45.17-22.73c0-3.23,2.62-5.85,5.85-5.85h78.64c3.23,0,5.85,2.62,5.85,5.85Z" fill="#e6e7e8" stroke="#002346" stroke-miterlimit="10" stroke-width="1.08"></path>
    <polygon points="477.63 75.59 477.63 111 452.23 123.57 427.34 111 426.42 67.34 468.65 67.34 477.63 75.59" fill="#8d00f2" stroke="#002346" stroke-miterlimit="10" stroke-width="1.08"></polygon>
    <path d="M468.65,67.53v8.1l8.74-.06c.08,0,.12-.09,.06-.15l-8.66-7.96c-.05-.05-.14-.01-.14,.06Z" fill="#8d00f2" stroke="#002346" stroke-miterlimit="10" stroke-width="1.08"></path>
    <path d="M459.72,81.91c1.53,.8,2.71,1.92,3.56,3.37,.85,1.45,1.27,3.13,1.27,5.05,0,.56-.03,1.13-.1,1.71-.28,2.04-.91,3.62-1.9,4.74-.99,1.12-2.26,1.68-3.81,1.68-.75,0-1.41-.13-1.98-.39-.57-.26-1.03-.63-1.37-1.13-.06-.11-.13-.11-.19,0-.41,.45-.9,.81-1.48,1.06-.58,.26-1.17,.39-1.77,.39-1.2,0-2.19-.29-2.95-.87-.76-.58-1.21-1.33-1.34-2.26-.04-.39-.06-.69-.06-.9,0-.49,.05-1.12,.16-1.87,.13-1.12,.33-2.03,.61-2.74,.34-1.01,.93-1.8,1.76-2.35,.83-.56,1.75-.84,2.76-.84,1.16,0,2.03,.35,2.61,1.06,.04,.04,.08,.05,.11,.03,.03-.02,.05-.05,.05-.1l.06-.55c.02-.19,.13-.29,.32-.29h1.52c.11,0,.19,.04,.26,.11,.06,.08,.09,.16,.06,.24l-.87,6.48c-.02,.13-.03,.31-.03,.55,0,.69,.18,1.25,.53,1.69,.36,.44,.84,.66,1.47,.66,.82,0,1.51-.38,2.08-1.13,.57-.75,.95-1.82,1.14-3.19,.09-.77,.13-1.33,.13-1.68,0-2.41-.74-4.3-2.21-5.68-1.47-1.38-3.42-2.06-5.85-2.06-1.85,0-3.58,.43-5.19,1.29-1.61,.86-2.91,2.12-3.89,3.77-.98,1.66-1.47,3.63-1.47,5.93,0,1.61,.32,3.05,.95,4.31,.63,1.26,1.55,2.24,2.74,2.93,1.19,.7,2.6,1.05,4.21,1.05,1.07,0,2.1-.12,3.08-.37,.98-.25,1.73-.55,2.24-.92,.06-.04,.14-.06,.23-.06s.16,.04,.23,.13l.81,.97s.06,.11,.06,.19c0,.11-.04,.19-.13,.26-.75,.56-1.75,1.01-3,1.35-1.25,.34-2.52,.52-3.81,.52-1.96,0-3.67-.43-5.14-1.29-1.47-.86-2.61-2.08-3.42-3.66s-1.21-3.4-1.21-5.47c0-.49,.01-.87,.03-1.13,.17-2.39,.88-4.47,2.11-6.26,1.24-1.78,2.8-3.16,4.69-4.11,1.89-.96,3.89-1.44,6-1.44s3.79,.4,5.32,1.19Zm-6.19,14.09c.43-.34,.75-.8,.97-1.35,.15-.32,.26-.7,.32-1.13l.19-1.48c.06-.58,.1-.99,.1-1.23l-.03-.55c-.04-.54-.25-.98-.63-1.32-.38-.34-.85-.52-1.44-.52s-1.14,.17-1.61,.52c-.47,.34-.82,.77-1.03,1.29-.17,.43-.33,1.2-.48,2.32-.11,.62-.16,1.13-.16,1.52,0,.17,.02,.37,.06,.58,.04,.56,.26,1.01,.66,1.35,.4,.34,.91,.52,1.53,.52s1.12-.17,1.55-.52Z" fill="#fff"></path>
  </g>
  <g>
    <rect x="120.81" y="210.5" width="121.58" height="76.92" rx="7.87" ry="7.87" fill="#fff" stroke="#002346" stroke-miterlimit="10" stroke-width="1.08"></rect>
    <path d="M242.39,218.38l-60.79,30.59-60.79-30.59c0-4.35,3.52-7.87,7.87-7.87h105.83c4.35,0,7.87,3.52,7.87,7.87Z" fill="#e6e7e8" stroke="#002346" stroke-miterlimit="10" stroke-width="1.08"></path>
    <polygon points="215.77 184.39 215.77 232.04 181.6 248.96 148.1 232.04 146.86 173.29 203.69 173.29 215.77 184.39" fill="#8d00f2" stroke="#002346" stroke-miterlimit="10" stroke-width="1.08"></polygon>
    <path d="M203.69,173.55v10.9l11.76-.08c.11,0,.16-.13,.08-.2l-11.65-10.71c-.07-.07-.19-.02-.19,.08Z" fill="#8d00f2" stroke="#002346" stroke-miterlimit="10" stroke-width="1.08"></path>
    <path d="M191.67,192.89c2.05,1.07,3.65,2.58,4.8,4.54,1.14,1.95,1.71,4.22,1.71,6.79,0,.75-.04,1.52-.13,2.3-.38,2.75-1.23,4.88-2.56,6.38-1.33,1.5-3.04,2.26-5.12,2.26-1.01,0-1.9-.17-2.67-.52-.77-.35-1.38-.85-1.84-1.52-.09-.14-.17-.14-.26,0-.55,.61-1.22,1.09-2,1.43-.78,.35-1.58,.52-2.39,.52-1.62,0-2.94-.39-3.97-1.17-1.03-.78-1.63-1.79-1.8-3.04-.06-.52-.09-.93-.09-1.22,0-.67,.07-1.5,.22-2.52,.17-1.5,.45-2.73,.82-3.69,.46-1.36,1.25-2.42,2.37-3.17,1.11-.75,2.35-1.13,3.71-1.13,1.56,0,2.73,.48,3.52,1.43,.06,.06,.11,.07,.15,.04,.04-.03,.07-.07,.07-.13l.09-.74c.03-.26,.17-.39,.43-.39h2.04c.14,0,.26,.05,.35,.15,.09,.1,.12,.21,.09,.33l-1.17,8.72c-.03,.17-.04,.42-.04,.74,0,.93,.24,1.69,.72,2.28,.48,.59,1.14,.89,1.97,.89,1.1,0,2.03-.51,2.8-1.52,.77-1.01,1.28-2.44,1.54-4.3,.12-1.04,.17-1.79,.17-2.26,0-3.24-.99-5.79-2.97-7.64-1.98-1.85-4.61-2.78-7.88-2.78-2.49,0-4.82,.58-6.99,1.74-2.17,1.16-3.91,2.85-5.23,5.08-1.32,2.23-1.97,4.89-1.97,7.99,0,2.17,.43,4.1,1.28,5.79,.85,1.69,2.08,3.01,3.69,3.95,1.61,.94,3.49,1.41,5.66,1.41,1.45,0,2.83-.17,4.15-.5,1.32-.33,2.32-.75,3.02-1.24,.09-.06,.19-.09,.3-.09s.22,.06,.3,.17l1.09,1.3c.06,.06,.09,.14,.09,.26,0,.14-.06,.26-.17,.35-1.01,.75-2.36,1.36-4.04,1.82-1.68,.46-3.39,.69-5.12,.69-2.63,0-4.94-.58-6.92-1.74-1.98-1.16-3.52-2.8-4.6-4.93s-1.63-4.58-1.63-7.36c0-.67,.01-1.17,.04-1.52,.23-3.21,1.18-6.02,2.84-8.42,1.66-2.4,3.77-4.25,6.31-5.53,2.55-1.29,5.24-1.93,8.07-1.93s5.11,.54,7.16,1.61Zm-8.33,18.97c.58-.46,1.01-1.07,1.3-1.82,.2-.43,.35-.94,.43-1.52l.26-2c.09-.78,.13-1.33,.13-1.65l-.04-.74c-.06-.72-.34-1.32-.85-1.78-.51-.46-1.15-.69-1.93-.69s-1.53,.23-2.17,.69c-.64,.46-1.1,1.04-1.39,1.74-.23,.58-.45,1.62-.65,3.12-.15,.84-.22,1.52-.22,2.04,0,.23,.03,.49,.09,.78,.06,.75,.35,1.36,.89,1.82,.54,.46,1.22,.69,2.06,.69s1.5-.23,2.08-.69Z" fill="#fff"></path>
  </g>
</svg>
